<svg xmlns="http://www.w3.org/2000/svg" xmlns:xlink="http://www.w3.org/1999/xlink" preserveAspectRatio="xMidYMid" width="32" height="32" viewBox="0 0 32 32">
  <defs>
    <style>
      .cls-1 {
        fill: #42feff;
        fill-rule: evenodd;
      }
    </style>
  </defs>
  <path d="M29.877,15.254 C29.881,15.340 29.639,16.752 29.416,17.422 C29.192,18.091 29.225,18.001 29.192,18.091 C29.087,18.349 28.982,18.607 28.877,18.864 C28.730,19.097 28.597,19.512 28.418,19.856 C27.864,20.920 27.082,22.016 26.253,22.869 C25.682,23.456 25.067,24.037 24.402,24.530 C24.000,24.813 23.597,25.096 23.195,25.380 C23.319,25.640 23.635,25.829 23.838,26.023 C24.338,26.503 24.832,26.988 25.321,27.478 C26.135,27.413 26.937,28.070 26.620,28.895 C26.508,29.187 26.274,29.337 26.056,29.526 C25.756,29.634 25.522,29.693 25.281,29.616 C24.933,29.505 24.226,29.005 24.441,28.393 C24.264,28.164 24.030,27.989 23.825,27.787 C23.203,27.187 22.582,26.586 21.961,25.985 C21.672,25.669 21.234,25.436 21.042,25.032 C21.194,24.807 21.533,24.688 21.764,24.543 C21.782,24.561 22.486,24.090 22.617,24.015 C22.810,23.864 23.002,23.714 23.195,23.564 C23.671,23.256 24.147,22.871 24.533,22.469 C24.802,22.190 25.062,21.910 25.321,21.620 C25.347,21.590 25.633,21.237 25.623,21.323 C25.991,20.849 26.429,20.269 26.738,19.714 C26.886,19.449 27.405,18.368 27.434,18.297 C27.589,17.910 27.799,17.265 27.959,16.868 C28.016,16.746 28.299,15.184 28.352,14.512 C28.375,14.235 28.330,12.785 28.261,12.426 C28.269,12.353 28.199,12.119 28.208,12.001 C28.226,11.769 27.843,10.018 27.657,9.567 C27.471,9.116 27.245,8.639 27.053,8.241 C27.066,8.241 26.893,8.005 26.843,7.855 C26.852,7.833 26.681,7.574 26.646,7.520 C26.455,7.219 26.051,6.546 26.043,6.503 C24.529,4.458 22.166,2.788 19.651,2.060 C18.424,1.689 17.718,1.524 16.790,1.481 C15.862,1.438 14.931,1.475 14.349,1.563 C13.768,1.652 13.102,1.737 12.433,1.931 C11.763,2.126 10.336,2.756 10.320,2.768 C10.123,2.918 9.781,3.036 9.572,3.180 C8.952,3.607 8.295,3.989 7.747,4.468 C6.325,5.715 5.161,7.435 4.519,9.039 C4.385,9.374 4.032,10.594 3.994,10.700 C3.943,10.842 3.615,12.645 3.600,13.057 C3.538,14.747 3.728,16.075 4.099,17.254 C4.120,17.320 4.707,18.923 4.847,19.186 C5.180,19.811 5.638,20.434 6.041,21.053 C6.221,21.329 6.514,21.550 6.724,21.800 C7.276,22.457 8.016,23.085 8.732,23.577 C9.032,23.783 9.364,23.914 9.598,24.182 C9.545,24.467 9.189,24.661 9.007,24.839 C8.391,25.440 7.774,26.041 7.157,26.641 C7.092,26.783 7.117,27.041 7.104,27.118 C7.060,27.392 6.734,27.716 6.540,27.826 C6.158,28.043 5.551,27.909 5.293,27.723 C4.848,27.402 4.742,26.627 5.109,26.152 C5.317,25.884 5.625,25.809 5.989,25.727 C6.098,25.727 6.208,25.727 6.317,25.727 C6.422,25.620 6.527,25.513 6.632,25.405 C6.903,25.226 7.333,24.780 7.524,24.517 C7.524,24.508 7.524,24.500 7.524,24.491 C5.442,22.999 3.695,20.930 2.760,18.323 C2.634,17.971 2.489,17.432 2.340,16.945 C2.270,16.715 2.255,16.389 2.183,16.173 C2.164,16.116 2.049,15.245 2.052,15.078 C2.043,14.924 2.034,14.769 2.025,14.615 C1.970,14.093 2.025,13.460 2.025,12.915 C2.025,12.022 2.216,11.149 2.406,10.507 C2.467,10.303 2.583,9.716 2.590,9.683 C2.617,9.540 2.970,8.670 2.957,8.666 C3.233,8.003 3.568,7.314 3.941,6.709 C4.059,6.519 4.689,5.576 4.781,5.472 C5.316,4.875 5.758,4.255 6.356,3.721 C7.341,2.843 9.207,1.629 10.110,1.210 C11.013,0.791 11.480,0.741 12.105,0.489 C12.227,0.468 13.811,0.129 13.811,0.129 C13.811,0.129 14.411,0.051 14.795,0.026 C15.179,-0.000 15.889,0.004 15.989,-0.000 C16.423,-0.000 16.954,0.027 17.604,0.077 C18.253,0.127 19.336,0.373 19.336,0.373 C19.336,0.373 20.163,0.576 20.215,0.592 C20.457,0.666 20.964,0.858 20.990,0.850 C21.236,0.931 22.000,1.262 22.000,1.262 L23.300,1.931 C23.300,1.931 24.183,2.515 24.625,2.807 C26.198,3.882 27.489,5.631 28.300,7.082 C28.590,7.601 28.790,8.291 29.087,8.820 C29.162,8.953 29.438,9.916 29.507,10.172 C29.499,10.207 29.534,10.336 29.560,10.366 C29.616,10.523 29.563,10.293 29.665,10.816 C29.767,11.340 30.213,13.370 29.877,15.254 ZM9.611,27.994 C9.939,27.902 10.142,27.949 10.149,27.929 C10.727,27.371 11.304,26.813 11.882,26.255 C12.005,26.134 12.435,25.801 12.472,25.650 C12.470,25.105 12.466,24.555 12.459,24.002 C12.452,23.474 12.444,22.951 12.433,22.431 C12.006,22.262 11.667,22.084 11.422,21.942 C10.862,21.615 10.492,21.301 9.900,20.796 C9.879,20.778 9.756,20.688 9.624,20.538 C9.415,20.301 9.176,20.001 9.060,19.688 C9.000,19.527 9.047,18.342 9.086,17.860 C9.086,17.499 9.086,17.139 9.086,16.778 C9.073,16.697 9.110,15.373 9.086,15.001 C9.086,14.684 9.086,14.366 9.086,14.048 C9.082,13.937 9.077,13.825 9.073,13.713 C9.062,13.229 9.008,12.684 9.217,12.349 C9.362,12.117 9.662,11.881 9.965,11.808 C10.214,11.748 10.214,11.748 10.779,11.743 C10.785,10.975 10.771,10.155 10.779,9.516 C10.787,8.877 11.000,8.183 11.002,8.177 C11.136,7.785 11.273,7.397 11.462,7.056 C11.935,6.202 12.764,5.548 13.680,5.125 C13.997,4.978 14.475,4.878 14.861,4.764 C15.149,4.734 15.438,4.704 15.727,4.674 C17.766,4.638 19.467,5.465 20.281,6.837 C20.334,6.889 21.041,8.081 21.121,9.078 C21.148,9.210 21.174,10.522 21.173,11.100 C21.178,11.318 21.182,11.537 21.187,11.756 C21.321,11.800 21.472,11.739 21.633,11.769 C22.053,11.847 22.369,11.931 22.591,12.194 C22.908,12.570 22.867,13.195 22.867,14.061 C22.867,15.147 22.867,16.233 22.867,17.319 C22.853,17.310 22.867,17.608 22.867,17.860 C22.867,18.434 22.953,19.439 22.853,19.804 C22.765,20.127 22.182,20.716 21.882,20.937 C21.613,21.137 21.387,21.398 21.095,21.581 C20.228,22.124 19.418,22.447 18.286,22.779 C18.286,23.753 18.286,24.727 18.286,25.701 C18.286,25.939 18.226,26.712 18.286,26.822 C18.636,27.161 18.986,27.500 19.336,27.839 C19.727,28.255 20.156,28.698 20.609,29.049 C20.824,29.264 21.038,29.479 21.252,29.693 C21.398,29.797 21.642,29.727 21.830,29.796 C22.117,29.902 22.377,30.093 22.525,30.337 C22.843,30.860 22.563,31.614 22.040,31.856 C21.678,32.047 21.200,31.934 21.200,31.947 C20.815,31.874 20.523,31.522 20.399,31.110 C20.395,30.964 20.390,30.818 20.386,30.672 C20.351,30.570 19.948,30.231 19.848,30.144 C19.152,29.492 18.457,28.839 17.761,28.187 C17.601,28.039 17.078,27.673 17.026,27.478 C17.035,27.071 17.055,25.695 17.052,25.457 C17.046,24.909 17.094,24.366 17.066,23.693 C17.066,23.311 17.066,22.929 17.066,22.547 C17.042,22.377 17.035,21.542 17.026,21.388 C17.038,20.906 17.012,20.463 17.021,19.674 C18.329,19.003 18.572,16.884 17.420,16.018 C17.175,15.834 16.541,15.568 16.541,15.568 C16.541,15.568 16.253,15.496 16.016,15.490 C15.862,15.496 15.596,15.529 15.596,15.529 C15.596,15.529 15.167,15.658 14.953,15.722 C14.040,16.159 13.401,17.546 13.929,18.761 C14.031,18.996 14.198,19.277 14.415,19.444 C14.533,19.529 14.651,19.615 14.769,19.701 C14.773,19.971 14.778,20.242 14.782,20.512 C14.782,21.014 14.782,21.517 14.782,22.019 C14.782,22.183 14.773,22.484 14.785,22.585 C14.785,22.585 14.794,22.782 14.769,22.843 C14.735,22.897 14.695,22.913 14.638,22.946 C14.354,22.869 14.187,22.890 13.890,22.830 C13.885,22.843 13.876,25.032 13.876,26.114 C12.958,27.002 12.039,27.891 11.120,28.779 C11.032,28.880 11.124,29.122 11.081,29.268 C11.001,29.542 10.821,29.843 10.595,29.976 C9.830,30.429 9.212,29.974 8.902,29.474 C8.838,29.370 8.579,28.531 9.611,27.994 ZM13.653,11.782 C15.022,11.782 16.392,11.782 17.761,11.782 C18.242,11.730 19.278,11.897 19.546,11.756 C19.611,10.744 19.634,9.537 19.415,8.782 C18.980,7.282 17.683,6.248 15.779,6.258 C15.200,6.313 14.613,6.456 14.401,6.554 C13.480,6.982 13.050,7.703 12.708,8.370 C12.367,9.036 12.396,9.528 12.361,9.662 C12.370,9.743 12.262,10.506 12.302,10.919 C12.325,11.163 12.241,11.616 12.380,11.756 C12.625,11.874 13.339,11.750 13.653,11.782 Z" class="cls-1"/>
</svg>
